<?xml version="1.0" encoding="UTF-8"?>
<!DOCTYPE svg PUBLIC "-//W3C//DTD SVG 1.1//EN" "http://www.w3.org/Graphics/SVG/1.1/DTD/svg11.dtd">
<svg xmlns="http://www.w3.org/2000/svg" version="1.1" width="445px" height="454px" style="shape-rendering:geometricPrecision; text-rendering:geometricPrecision; image-rendering:optimizeQuality; fill-rule:evenodd; clip-rule:evenodd" xmlns:xlink="http://www.w3.org/1999/xlink">
<g><path style="opacity:1" fill="#1cc2b5" d="M 93.5,-0.5 C 203.167,-0.5 312.833,-0.5 422.5,-0.5C 425.245,0.167899 427.745,1.50123 430,3.5C 430.333,3.16667 430.667,2.83333 431,2.5C 439.379,8.25273 443.879,16.2527 444.5,26.5C 444.5,27.1667 444.5,27.8333 444.5,28.5C 443.964,33.9621 442.464,39.2955 440,44.5C 434.853,54.1243 429.186,63.4576 423,72.5C 417.706,78.2358 411.206,82.0691 403.5,84C 302.833,84.3333 202.167,84.6667 101.5,85C 100.24,86.113 99.073,86.2797 98,85.5C 87.5586,92.739 84.2253,103.072 88,116.5C 93.204,130.036 102.704,139.203 116.5,144C 183.803,145.313 251.136,145.98 318.5,146C 338.88,148.401 356.546,155.735 371.5,168C 375.833,173.667 380.833,178.667 386.5,183C 386.167,183.333 385.833,183.667 385.5,184C 394.641,193.758 401.141,205.258 405,218.5C 415.826,256 409.159,288.333 385,315.5C 383.714,319.091 381.547,321.925 378.5,324C 378.833,324.333 379.167,324.667 379.5,325C 369.155,338.378 358.988,351.878 349,365.5C 336.62,380.639 324.62,396.639 313,413.5C 306.938,419.235 301.104,425.402 295.5,432C 279.593,444.118 261.26,451.285 240.5,453.5C 235.833,453.5 231.167,453.5 226.5,453.5C 209.112,451.438 193.445,445.605 179.5,436C 173.448,431.282 168.115,425.948 163.5,420C 163.833,419.667 164.167,419.333 164.5,419C 161.728,417.14 159.395,414.806 157.5,412C 157.833,411.667 158.167,411.333 158.5,411C 154.503,406.466 150.503,401.8 146.5,397C 146.833,396.667 147.167,396.333 147.5,396C 142.548,390.272 137.715,384.438 133,378.5C 126.738,369.233 120.072,360.233 113,351.5C 107.866,343.215 102.366,335.215 96.5,327.5C 89.8605,309.633 95.1939,298.133 112.5,293C 131.833,292.333 151.167,292.333 170.5,293C 174.635,295.727 178.468,298.893 182,302.5C 195.381,322.097 209.214,341.43 223.5,360.5C 233.52,367.552 242.853,366.719 251.5,358C 251.167,357.667 250.833,357.333 250.5,357C 273.333,326.15 295.333,295.65 316.5,265.5C 324.698,248.512 320.032,237.012 302.5,231C 239.167,230.667 175.833,230.333 112.5,230C 76.3165,227.014 46.9832,211.681 24.5,184C 24.8333,183.667 25.1667,183.333 25.5,183C 10.238,164.982 1.57137,144.482 -0.5,121.5C -0.5,113.167 -0.5,104.833 -0.5,96.5C 2.09062,75.49 8.92395,56.8233 20,40.5C 34.5686,22.0658 53.0686,9.5658 75.5,3C 81.581,1.50261 87.581,0.335945 93.5,-0.5 Z"/></g>
</svg>
