<?xml version="1.0" encoding="UTF-8" standalone="no"?>
<!DOCTYPE svg PUBLIC "-//W3C//DTD SVG 1.1//EN" "http://www.w3.org/Graphics/SVG/1.1/DTD/svg11.dtd">
<svg xmlns="http://www.w3.org/2000/svg" version="1.1" viewBox="0.00 0.00 390.00 381.00">
<g stroke-width="2.00" fill="none" stroke-linecap="butt">
<path stroke="#e1e1e1" vector-effect="non-scaling-stroke" d="
  M 103.17 211.97
  Q 108.03 225.34 106.91 236.23
  Q 105.50 250.07 97.06 265.19"
/>
<path stroke="#f49299" vector-effect="non-scaling-stroke" d="
  M 97.06 265.19
  L 92.54 270.23"
/>
<path stroke="#d6747b" vector-effect="non-scaling-stroke" d="
  M 97.06 265.19
  L 122.03 234.12"
/>
<path stroke="#d82434" vector-effect="non-scaling-stroke" d="
  M 157.34 263.29
  C 160.37 255.97 165.19 247.98 167.83 242.23
  C 174.09 228.61 179.75 213.51 182.55 198.66
  Q 183.09 195.82 184.57 182.90
  Q 185.45 175.30 184.57 170.59"
/>
<path stroke="#f49299" vector-effect="non-scaling-stroke" d="
  M 276.21 92.01
  Q 276.12 93.10 275.79 93.15"
/>
<path stroke="#d82434" vector-effect="non-scaling-stroke" d="
  M 275.79 93.15
  Q 273.75 93.68 272.49 95.01
  Q 261.89 106.20 254.27 120.49
  C 249.97 128.56 246.46 138.58 247.12 148.17"
/>
<path stroke="#e3919a" vector-effect="non-scaling-stroke" d="
  M 260.93 135.90
  Q 261.36 121.19 269.58 105.05
  Q 274.42 95.53 275.79 93.15"
/>
</g>
<path fill="#ffffff" d="
  M 103.17 211.97
  Q 108.03 225.34 106.91 236.23
  Q 105.50 250.07 97.06 265.19
  L 92.54 270.23
  Q 66.79 238.06 41.14 205.86
  Q 36.82 200.43 35.56 194.14
  Q 34.56 189.15 36.71 183.61
  Q 38.89 178.00 41.95 174.22
  Q 66.70 143.65 101.49 100.09
  Q 105.41 95.19 113.78 92.49
  Q 116.18 91.72 124.54 91.78
  Q 143.69 91.91 160.50 91.98
  Q 163.14 91.99 164.61 92.19
  A 0.29 0.28 22.6 0 1 164.80 92.65
  Q 145.32 117.08 101.93 171.17
  C 98.97 174.86 95.91 179.06 94.77 183.63
  Q 92.37 193.36 96.71 202.51
  Q 98.06 205.36 103.17 211.97
  Z"
/>
<path fill="#e82532" d="
  M 276.21 92.01
  Q 276.12 93.10 275.79 93.15
  Q 273.75 93.68 272.49 95.01
  Q 261.89 106.20 254.27 120.49
  C 249.97 128.56 246.46 138.58 247.12 148.17
  Q 242.39 149.92 238.74 149.97
  Q 217.11 150.25 192.50 149.91
  A 0.33 0.33 0.0 0 1 192.24 149.39
  Q 195.57 144.86 197.27 142.77
  Q 214.23 121.89 230.63 101.13
  Q 237.82 92.04 249.50 91.82
  Q 262.91 91.57 276.21 92.01
  Z"
/>
<path fill="#ffffff" d="
  M 260.93 135.90
  Q 261.36 121.19 269.58 105.05
  Q 274.42 95.53 275.79 93.15
  Q 276.12 93.10 276.21 92.01
  Q 277.87 93.12 278.32 93.69
  Q 309.73 132.84 343.40 174.85
  C 348.71 181.47 352.02 189.13 348.83 197.55
  C 347.53 200.99 346.23 203.44 343.83 206.42
  Q 313.90 243.53 284.10 281.11
  Q 282.95 282.57 279.04 285.61
  C 274.24 289.35 267.22 290.19 261.62 290.16
  Q 232.08 289.97 220.69 290.01
  A 0.44 0.43 -73.1 0 1 220.33 289.33
  Q 221.30 287.87 222.66 286.15
  Q 254.53 245.85 282.50 211.27
  Q 283.73 209.76 285.63 207.34
  C 291.39 200.02 292.56 190.15 289.65 181.82
  Q 288.02 177.14 283.22 171.28
  Q 276.16 162.67 264.36 147.61
  Q 262.68 145.46 260.93 135.90
  Z"
/>
<path fill="#c72235" d="
  M 275.79 93.15
  Q 274.42 95.53 269.58 105.05
  Q 261.36 121.19 260.93 135.90
  Q 254.28 143.66 247.12 148.17
  C 246.46 138.58 249.97 128.56 254.27 120.49
  Q 261.89 106.20 272.49 95.01
  Q 273.75 93.68 275.79 93.15
  Z"
/>
<path fill="#c72235" d="
  M 157.34 263.29
  C 160.37 255.97 165.19 247.98 167.83 242.23
  C 174.09 228.61 179.75 213.51 182.55 198.66
  Q 183.09 195.82 184.57 182.90
  Q 185.45 175.30 184.57 170.59
  Q 191.82 169.75 196.00 169.78
  Q 209.92 169.87 231.69 169.99
  A 0.25 0.24 -70.6 0 1 231.88 170.39
  L 157.34 263.29
  Z"
/>
<path fill="#e82532" d="
  M 184.57 170.59
  Q 185.45 175.30 184.57 182.90
  Q 183.09 195.82 182.55 198.66
  C 179.75 213.51 174.09 228.61 167.83 242.23
  C 165.19 247.98 160.37 255.97 157.34 263.29
  Q 149.45 273.95 141.96 281.69
  C 133.66 290.27 120.03 291.16 109.60 286.97
  Q 105.59 285.36 100.66 280.13
  Q 96.24 275.44 92.54 270.23
  L 97.06 265.19
  L 122.03 234.12
  Q 123.09 234.39 123.88 233.38
  Q 144.47 207.26 165.40 181.40
  C 170.47 175.13 175.96 171.03 184.57 170.59
  Z"
/>
<path fill="#c3c3c3" d="
  M 103.17 211.97
  Q 112.29 222.57 120.41 232.85
  Q 120.84 233.39 122.03 234.12
  L 97.06 265.19
  Q 105.50 250.07 106.91 236.23
  Q 108.03 225.34 103.17 211.97
  Z"
/>
</svg>
