<?xml version="1.0" encoding="UTF-8" standalone="no"?>
<!DOCTYPE svg PUBLIC "-//W3C//DTD SVG 1.1//EN" "http://www.w3.org/Graphics/SVG/1.1/DTD/svg11.dtd">
<svg xmlns="http://www.w3.org/2000/svg" version="1.1" viewBox="0.00 0.00 765.00 692.00">
<g stroke-width="2.00" fill="none" stroke-linecap="butt">
<path stroke="#018ed9" vector-effect="non-scaling-stroke" d="
  M 638.37 75.01
  Q 577.69 136.17 516.37 197.10
  Q 509.82 203.61 501.99 208.51
  Q 501.80 208.63 501.63 208.54
  Q 501.46 208.45 501.31 208.29"
/>
<path stroke="#018ad9" vector-effect="non-scaling-stroke" d="
  M 492.44 396.01
  Q 492.73 395.24 491.49 395.24
  Q 407.49 395.18 323.49 395.33
  Q 322.56 395.33 322.79 395.83"
/>
<path stroke="#018ad9" vector-effect="non-scaling-stroke" d="
  M 276.28 425.24
  L 274.82 425.47
  A 0.28 0.28 0.0 0 1 274.52 425.09
  Q 277.50 417.18 281.81 410.31
  C 284.15 406.57 288.96 399.37 293.15 394.92
  C 296.59 391.26 299.50 387.75 303.75 383.56
  Q 368.58 319.72 433.33 257.33
  Q 437.65 253.17 440.29 246.82"
/>
<path stroke="#0298e1" vector-effect="non-scaling-stroke" d="
  M 275.61 448.15
  Q 273.53 449.97 271.25 452.01
  Q 238.61 481.21 201.00 504.75
  Q 187.82 513.00 183.32 515.56
  Q 139.87 540.28 117.14 552.90
  Q 114.90 554.15 111.42 555.36"
/>
</g>
<path fill="#212330" fill-opacity="0.008" d="
  M 765.00 0.00
  L 765.00 692.00
  L 0.00 692.00
  L 0.00 0.00
  L 765.00 0.00
  Z
  M 102.32 40.76
  C 98.60 44.40 96.13 49.86 97.66 54.99
  C 99.64 61.63 104.43 67.31 109.94 71.57
  Q 157.89 108.63 202.70 144.01
  Q 203.38 144.55 203.64 144.29
  Q 203.90 144.04 203.38 143.34
  Q 168.97 97.78 132.95 49.05
  C 128.81 43.45 123.24 38.54 116.64 36.41
  C 111.55 34.77 106.03 37.13 102.32 40.76
  Z
  M 501.31 208.29
  L 501.35 208.75
  A 1.90 1.79 -38.0 0 1 501.22 209.61
  Q 496.84 220.88 489.18 228.95
  Q 483.60 234.83 481.04 236.84
  Q 473.32 242.92 463.44 244.58
  Q 455.80 245.86 447.25 245.96
  A 4.65 4.53 -51.5 0 0 446.30 246.08
  Q 443.37 246.78 440.29 246.82
  Q 342.68 246.97 245.08 246.96
  C 244.41 246.96 243.85 247.36 243.00 247.41
  Q 236.49 247.82 230.53 247.98
  A 4.25 4.21 36.5 0 0 229.49 248.13
  Q 227.35 248.69 225.02 248.80
  Q 223.26 248.87 220.02 249.37
  Q 171.31 256.76 135.58 290.85
  C 114.14 311.30 97.20 337.77 88.86 366.31
  Q 85.57 377.57 82.08 397.65
  C 81.79 399.31 81.98 401.50 81.45 403.05
  Q 80.91 404.62 80.88 407.01
  Q 80.83 410.57 80.12 414.25
  A 12.51 12.35 -40.1 0 0 79.89 416.73
  Q 79.90 421.85 79.51 425.28
  Q 78.90 430.58 78.93 433.75
  Q 78.98 441.50 78.99 445.00
  Q 78.99 445.53 79.29 446.23
  A 2.29 2.27 33.4 0 1 79.46 447.04
  Q 80.00 466.80 84.41 487.81
  Q 90.46 516.66 103.96 542.52
  C 106.05 546.52 108.98 551.04 111.42 555.36
  Q 116.10 561.16 120.75 566.96
  Q 123.18 569.98 125.29 572.05
  C 129.38 576.08 133.16 580.20 137.51 583.99
  Q 167.13 609.79 205.48 619.03
  Q 219.42 622.38 236.29 624.38
  C 245.69 625.50 255.86 625.01 265.22 625.42
  Q 276.76 625.93 286.94 626.01
  Q 349.37 626.53 406.48 626.01
  Q 411.84 625.96 416.48 625.55
  Q 422.09 625.06 426.50 625.11
  Q 433.36 625.19 441.47 624.30
  Q 458.33 622.45 464.44 620.88
  Q 480.02 616.89 490.19 612.41
  C 524.56 597.27 550.41 568.85 564.42 533.89
  Q 568.90 522.71 571.00 514.03
  C 573.49 503.74 575.90 493.84 577.27 484.02
  Q 578.54 474.97 579.60 466.60
  Q 580.16 462.17 580.13 458.90
  C 580.06 452.87 581.12 447.68 581.09 442.33
  Q 581.06 436.31 580.64 433.52
  Q 580.34 431.46 580.33 422.51
  Q 580.32 418.96 577.21 418.96
  Q 509.86 418.89 401.59 418.93
  C 397.29 418.93 394.73 419.54 393.31 423.59
  C 388.28 437.96 378.01 450.15 363.27 455.40
  Q 356.25 457.91 340.97 458.23
  Q 318.01 458.71 297.27 457.91
  C 288.47 457.56 281.20 455.47 275.61 448.15
  Q 273.33 442.34 272.13 434.93
  A 3.61 3.54 -36.4 0 1 272.48 432.75
  L 276.28 425.24
  Q 284.86 412.11 298.26 403.99
  Q 309.31 397.30 322.21 396.14
  Q 322.61 396.10 322.79 395.83
  L 492.44 396.01
  Q 495.53 395.41 496.50 395.43
  Q 517.82 395.72 539.10 394.95
  A 2.59 2.50 -53.1 0 0 539.73 394.85
  Q 541.19 394.38 544.77 394.07
  Q 556.24 393.08 568.12 389.56
  Q 581.12 385.71 589.83 382.07
  Q 601.22 377.30 612.11 370.31
  Q 621.82 364.07 626.09 360.31
  Q 628.71 358.01 629.97 357.03
  Q 632.33 355.19 633.83 353.73
  Q 643.96 343.84 645.52 342.02
  Q 658.70 326.69 666.51 312.04
  Q 672.17 301.42 673.64 297.86
  Q 687.76 263.82 688.88 230.99
  Q 689.67 207.61 688.77 196.14
  Q 687.97 186.00 687.08 180.00
  Q 682.83 151.34 673.17 127.07
  Q 661.79 98.45 639.75 76.64
  C 639.25 76.15 639.16 75.60 638.37 75.01
  Q 628.63 67.40 623.92 64.35
  Q 602.97 50.77 579.22 45.10
  Q 565.82 41.90 556.48 41.10
  Q 549.95 40.54 548.12 40.13
  A 4.65 4.57 -39.2 0 0 546.84 40.01
  Q 542.39 40.18 535.86 39.52
  Q 531.00 39.03 525.14 39.01
  Q 447.94 38.85 386.47 39.49
  C 381.36 39.55 377.70 39.94 373.58 39.93
  Q 369.15 39.92 363.94 40.58
  Q 350.26 42.32 337.31 46.16
  Q 317.26 52.11 299.28 65.07
  Q 264.27 90.32 248.45 131.70
  Q 236.37 163.28 234.46 199.98
  A 1.78 1.74 59.5 0 1 234.31 200.59
  Q 234.01 201.32 234.00 201.76
  Q 233.77 214.05 233.81 221.70
  C 233.82 224.36 234.53 225.31 237.25 225.31
  Q 340.61 225.32 403.01 225.32
  Q 407.67 225.32 411.08 221.83
  C 415.79 217.02 419.80 211.64 424.20 207.58
  Q 439.28 193.66 460.49 192.02
  Q 473.30 191.03 485.49 192.19
  C 494.63 193.07 499.79 199.80 501.31 208.29
  Z
  M 34.11 216.02
  Q 34.12 216.15 34.13 216.28
  Q 34.82 223.81 40.72 227.31
  C 43.55 228.99 48.49 229.87 51.50 229.46
  Q 77.31 225.94 96.01 223.54
  Q 117.87 220.74 136.74 218.15
  Q 145.04 217.01 179.02 212.79
  Q 182.75 212.32 182.72 211.37
  Q 182.69 210.41 178.94 210.18
  Q 144.76 208.09 136.41 207.47
  Q 117.41 206.06 95.42 204.64
  Q 76.60 203.41 50.63 201.51
  C 47.60 201.29 42.72 202.48 40.00 204.33
  Q 34.33 208.19 34.11 215.75
  Q 34.11 215.89 34.11 216.02
  Z
  M 705.13 622.83
  C 710.73 618.29 712.24 611.09 709.88 604.31
  Q 707.87 598.51 705.12 595.66
  Q 658.86 547.63 612.80 503.28
  Q 610.12 500.70 602.55 493.96
  Q 600.00 491.69 599.29 492.27
  Q 598.58 492.85 600.27 495.81
  Q 605.30 504.61 607.27 507.76
  Q 641.13 562.00 678.55 617.20
  Q 680.77 620.48 686.03 623.65
  C 692.17 627.36 699.52 627.38 705.13 622.83
  Z"
/>
<path fill="#02ace4" d="
  M 203.64 144.29
  Q 203.38 144.55 202.70 144.01
  Q 157.89 108.63 109.94 71.57
  C 104.43 67.31 99.64 61.63 97.66 54.99
  C 96.13 49.86 98.60 44.40 102.32 40.76
  C 106.03 37.13 111.55 34.77 116.64 36.41
  C 123.24 38.54 128.81 43.45 132.95 49.05
  Q 168.97 97.78 203.38 143.34
  Q 203.90 144.04 203.64 144.29
  Z"
/>
<path fill="#02ace4" d="
  M 638.37 75.01
  Q 577.69 136.17 516.37 197.10
  Q 509.82 203.61 501.99 208.51
  Q 501.80 208.63 501.63 208.54
  Q 501.46 208.45 501.31 208.29
  C 499.79 199.80 494.63 193.07 485.49 192.19
  Q 473.30 191.03 460.49 192.02
  Q 439.28 193.66 424.20 207.58
  C 419.80 211.64 415.79 217.02 411.08 221.83
  Q 407.67 225.32 403.01 225.32
  Q 340.61 225.32 237.25 225.31
  C 234.53 225.31 233.82 224.36 233.81 221.70
  Q 233.77 214.05 234.00 201.76
  Q 234.01 201.32 234.31 200.59
  A 1.78 1.74 59.5 0 0 234.46 199.98
  Q 236.37 163.28 248.45 131.70
  Q 264.27 90.32 299.28 65.07
  Q 317.26 52.11 337.31 46.16
  Q 350.26 42.32 363.94 40.58
  Q 369.15 39.92 373.58 39.93
  C 377.70 39.94 381.36 39.55 386.47 39.49
  Q 447.94 38.85 525.14 39.01
  Q 531.00 39.03 535.86 39.52
  Q 542.39 40.18 546.84 40.01
  A 4.65 4.57 -39.2 0 1 548.12 40.13
  Q 549.95 40.54 556.48 41.10
  Q 565.82 41.90 579.22 45.10
  Q 602.97 50.77 623.92 64.35
  Q 628.63 67.40 638.37 75.01
  Z"
/>
<path fill="#0070ce" d="
  M 638.37 75.01
  C 639.16 75.60 639.25 76.15 639.75 76.64
  Q 661.79 98.45 673.17 127.07
  Q 682.83 151.34 687.08 180.00
  Q 687.97 186.00 688.77 196.14
  Q 689.67 207.61 688.88 230.99
  Q 687.76 263.82 673.64 297.86
  Q 672.17 301.42 666.51 312.04
  Q 658.70 326.69 645.52 342.02
  Q 643.96 343.84 633.83 353.73
  Q 632.33 355.19 629.97 357.03
  Q 628.71 358.01 626.09 360.31
  Q 621.82 364.07 612.11 370.31
  Q 601.22 377.30 589.83 382.07
  Q 581.12 385.71 568.12 389.56
  Q 556.24 393.08 544.77 394.07
  Q 541.19 394.38 539.73 394.85
  A 2.59 2.50 -53.1 0 1 539.10 394.95
  Q 517.82 395.72 496.50 395.43
  Q 495.53 395.41 492.44 396.01
  Q 492.73 395.24 491.49 395.24
  Q 407.49 395.18 323.49 395.33
  Q 322.56 395.33 322.79 395.83
  Q 322.61 396.10 322.21 396.14
  Q 309.31 397.30 298.26 403.99
  Q 284.86 412.11 276.28 425.24
  L 274.82 425.47
  A 0.28 0.28 0.0 0 1 274.52 425.09
  Q 277.50 417.18 281.81 410.31
  C 284.15 406.57 288.96 399.37 293.15 394.92
  C 296.59 391.26 299.50 387.75 303.75 383.56
  Q 368.58 319.72 433.33 257.33
  Q 437.65 253.17 440.29 246.82
  Q 443.37 246.78 446.30 246.08
  A 4.65 4.53 -51.5 0 1 447.25 245.96
  Q 455.80 245.86 463.44 244.58
  Q 473.32 242.92 481.04 236.84
  Q 483.60 234.83 489.18 228.95
  Q 496.84 220.88 501.22 209.61
  A 1.90 1.79 -38.0 0 0 501.35 208.75
  L 501.31 208.29
  Q 501.46 208.45 501.63 208.54
  Q 501.80 208.63 501.99 208.51
  Q 509.82 203.61 516.37 197.10
  Q 577.69 136.17 638.37 75.01
  Z"
/>
<path fill="#0070ce" d="
  M 182.72 211.37
  Q 182.75 212.32 179.02 212.79
  Q 145.04 217.01 136.74 218.15
  Q 117.87 220.74 96.01 223.54
  Q 77.31 225.94 51.50 229.46
  C 48.49 229.87 43.55 228.99 40.72 227.31
  Q 34.82 223.81 34.13 216.28
  Q 34.12 216.15 34.11 216.02
  Q 34.11 215.89 34.11 215.75
  Q 34.33 208.19 40.00 204.33
  C 42.72 202.48 47.60 201.29 50.63 201.51
  Q 76.60 203.41 95.42 204.64
  Q 117.41 206.06 136.41 207.47
  Q 144.76 208.09 178.94 210.18
  Q 182.69 210.41 182.72 211.37
  Z"
/>
<path fill="#02a4e4" d="
  M 440.29 246.82
  Q 437.65 253.17 433.33 257.33
  Q 368.58 319.72 303.75 383.56
  C 299.50 387.75 296.59 391.26 293.15 394.92
  C 288.96 399.37 284.15 406.57 281.81 410.31
  Q 277.50 417.18 274.52 425.09
  A 0.28 0.28 0.0 0 0 274.82 425.47
  L 276.28 425.24
  L 272.48 432.75
  A 3.61 3.54 -36.4 0 0 272.13 434.93
  Q 273.33 442.34 275.61 448.15
  Q 273.53 449.97 271.25 452.01
  Q 238.61 481.21 201.00 504.75
  Q 187.82 513.00 183.32 515.56
  Q 139.87 540.28 117.14 552.90
  Q 114.90 554.15 111.42 555.36
  C 108.98 551.04 106.05 546.52 103.96 542.52
  Q 90.46 516.66 84.41 487.81
  Q 80.00 466.80 79.46 447.04
  A 2.29 2.27 33.4 0 0 79.29 446.23
  Q 78.99 445.53 78.99 445.00
  Q 78.98 441.50 78.93 433.75
  Q 78.90 430.58 79.51 425.28
  Q 79.90 421.85 79.89 416.73
  A 12.51 12.35 -40.1 0 1 80.12 414.25
  Q 80.83 410.57 80.88 407.01
  Q 80.91 404.62 81.45 403.05
  C 81.98 401.50 81.79 399.31 82.08 397.65
  Q 85.57 377.57 88.86 366.31
  C 97.20 337.77 114.14 311.30 135.58 290.85
  Q 171.31 256.76 220.02 249.37
  Q 223.26 248.87 225.02 248.80
  Q 227.35 248.69 229.49 248.13
  A 4.25 4.21 36.5 0 1 230.53 247.98
  Q 236.49 247.82 243.00 247.41
  C 243.85 247.36 244.41 246.96 245.08 246.96
  Q 342.68 246.97 440.29 246.82
  Z"
/>
<path fill="#02a4e4" d="
  M 492.44 396.01
  L 322.79 395.83
  Q 322.56 395.33 323.49 395.33
  Q 407.49 395.18 491.49 395.24
  Q 492.73 395.24 492.44 396.01
  Z"
/>
<path fill="#028bde" d="
  M 111.42 555.36
  Q 114.90 554.15 117.14 552.90
  Q 139.87 540.28 183.32 515.56
  Q 187.82 513.00 201.00 504.75
  Q 238.61 481.21 271.25 452.01
  Q 273.53 449.97 275.61 448.15
  C 281.20 455.47 288.47 457.56 297.27 457.91
  Q 318.01 458.71 340.97 458.23
  Q 356.25 457.91 363.27 455.40
  C 378.01 450.15 388.28 437.96 393.31 423.59
  C 394.73 419.54 397.29 418.93 401.59 418.93
  Q 509.86 418.89 577.21 418.96
  Q 580.32 418.96 580.33 422.51
  Q 580.34 431.46 580.64 433.52
  Q 581.06 436.31 581.09 442.33
  C 581.12 447.68 580.06 452.87 580.13 458.90
  Q 580.16 462.17 579.60 466.60
  Q 578.54 474.97 577.27 484.02
  C 575.90 493.84 573.49 503.74 571.00 514.03
  Q 568.90 522.71 564.42 533.89
  C 550.41 568.85 524.56 597.27 490.19 612.41
  Q 480.02 616.89 464.44 620.88
  Q 458.33 622.45 441.47 624.30
  Q 433.36 625.19 426.50 625.11
  Q 422.09 625.06 416.48 625.55
  Q 411.84 625.96 406.48 626.01
  Q 349.37 626.53 286.94 626.01
  Q 276.76 625.93 265.22 625.42
  C 255.86 625.01 245.69 625.50 236.29 624.38
  Q 219.42 622.38 205.48 619.03
  Q 167.13 609.79 137.51 583.99
  C 133.16 580.20 129.38 576.08 125.29 572.05
  Q 123.18 569.98 120.75 566.96
  Q 116.10 561.16 111.42 555.36
  Z"
/>
<path fill="#0070ce" d="
  M 599.29 492.27
  Q 600.00 491.69 602.55 493.96
  Q 610.12 500.70 612.80 503.28
  Q 658.86 547.63 705.12 595.66
  Q 707.87 598.51 709.88 604.31
  C 712.24 611.09 710.73 618.29 705.13 622.83
  C 699.52 627.38 692.17 627.36 686.03 623.65
  Q 680.77 620.48 678.55 617.20
  Q 641.13 562.00 607.27 507.76
  Q 605.30 504.61 600.27 495.81
  Q 598.58 492.85 599.29 492.27
  Z"
/>
</svg>
