<?xml version="1.0" encoding="UTF-8" standalone="no"?>
<svg
   version="1.1"
   viewBox="0 0 382.87112 255.34003"
   id="svg100"
   sodipodi:docname="logo-sorteillo.svg"
   width="382.87112"
   height="255.34003"
   inkscape:version="1.2.2 (b0a8486541, 2022-12-01)"
   xmlns:inkscape="http://www.inkscape.org/namespaces/inkscape"
   xmlns:sodipodi="http://sodipodi.sourceforge.net/DTD/sodipodi-0.dtd"
   xmlns="http://www.w3.org/2000/svg"
   xmlns:svg="http://www.w3.org/2000/svg">
  <defs
     id="defs104" />
  <sodipodi:namedview
     id="namedview102"
     pagecolor="#ffffff"
     bordercolor="#000000"
     borderopacity="0.25"
     inkscape:showpageshadow="2"
     inkscape:pageopacity="0.0"
     inkscape:pagecheckerboard="0"
     inkscape:deskcolor="#d1d1d1"
     showgrid="false"
     inkscape:zoom="2.0524934"
     inkscape:cx="111.57161"
     inkscape:cy="130.8165"
     inkscape:window-width="1920"
     inkscape:window-height="1002"
     inkscape:window-x="0"
     inkscape:window-y="0"
     inkscape:window-maximized="1"
     inkscape:current-layer="svg100" />
  <g
     stroke-width="2"
     fill="none"
     stroke-linecap="butt"
     id="g84"
     transform="matrix(1.2160878,0,0,1.2867928,-42.858021,-118.03675)">
    <path
       stroke="#e1e1e1"
       vector-effect="non-scaling-stroke"
       d="m 103.17,211.97 q 4.86,13.37 3.74,24.26 -1.41,13.84 -9.85,28.96"
       id="path70" />
    <path
       stroke="#f49299"
       vector-effect="non-scaling-stroke"
       d="m 97.06,265.19 -4.52,5.04"
       id="path72" />
    <path
       stroke="#d6747b"
       vector-effect="non-scaling-stroke"
       d="m 97.06,265.19 24.97,-31.07"
       id="path74" />
    <path
       stroke="#d82434"
       vector-effect="non-scaling-stroke"
       d="m 157.34,263.29 c 3.03,-7.32 7.85,-15.31 10.49,-21.06 6.26,-13.62 11.92,-28.72 14.72,-43.57 q 0.54,-2.84 2.02,-15.76 0.88,-7.6 0,-12.31"
       id="path76" />
    <path
       stroke="#f49299"
       vector-effect="non-scaling-stroke"
       d="m 276.21,92.01 q -0.09,1.09 -0.42,1.14"
       id="path78" />
    <path
       stroke="#d82434"
       vector-effect="non-scaling-stroke"
       d="m 275.79,93.15 q -2.04,0.53 -3.3,1.86 -10.6,11.19 -18.22,25.48 c -4.3,8.07 -7.81,18.09 -7.15,27.68"
       id="path80" />
    <path
       stroke="#e3919a"
       vector-effect="non-scaling-stroke"
       d="m 260.93,135.9 q 0.43,-14.71 8.65,-30.85 4.84,-9.52 6.21,-11.9"
       id="path82" />
  </g>
  <path
     fill="#ffffff"
     d="m 82.605757,154.72471 q 5.91018,17.20442 4.548165,31.2176 -1.714679,17.80921 -11.978467,37.26551 l -5.496715,6.48544 Q 38.36448,188.29714 7.1718287,146.8624 1.9183302,139.87512 0.38605993,131.78119 -0.83002857,125.3601 1.7845608,118.23127 4.4356316,111.01237 8.1568597,106.14828 38.255033,66.811029 80.562724,10.758334 85.329788,4.4530492 95.508442,0.97870918 q 2.918604,-0.99083 13.085108,-0.913623 23.28809,0.167284 43.73052,0.257359 3.21047,0.01287 4.99812,0.270226 a 0.36373465,0.34933724 70.969846 0 1 0.23106,0.59192602 Q 133.86386,32.620944 81.097806,102.22357 c -3.599616,4.74826 -7.320848,10.15279 -8.707195,16.03344 q -2.918605,12.52049 2.359217,24.29464 1.641716,3.66736 7.855929,12.17306 z"
     id="path86"
     style="stroke-width:1.25094" />
  <path
     fill="#e82532"
     d="m 293.03758,0.36104918 q -0.10944,1.40260402 -0.51075,1.46694402 -2.48082,0.681999 -4.01309,2.393434 Q 275.6232,18.620639 266.35662,37.008907 c -5.22918,10.384422 -9.49765,23.278082 -8.69503,35.618422 q -5.75209,2.25189 -10.19081,2.31622 -26.30398,0.36031 -56.2319,-0.0772 a 0.40130896,0.42464162 0 0 1 -0.31618,-0.66913 q 4.04956,-5.82917 6.11692,-8.51858 20.62485,-26.868224 40.56869,-53.582041 8.74366,-11.69694582 22.94757,-11.98004082 16.30773,-0.321698 32.4817,0.244491 z"
     id="path88"
     style="stroke-width:1.25094" />
  <path
     fill="#ffffff"
     d="m 274.45577,56.838379 q 0.52291,-18.928716 10.51915,-39.697552 5.88586,-12.2502678 7.55191,-15.3128338 0.40131,-0.06433 0.51075,-1.46694402 2.01871,1.42834002 2.56595,2.16181102 38.19731,50.3779388 79.14299,104.4360998 c 6.45743,8.51857 10.48267,18.3754 6.60335,29.2102 -1.58091,4.42657 -3.16182,7.57921 -6.08043,11.41385 q -36.39751,47.75288 -72.63693,96.11056 -1.39849,1.87872 -6.1534,5.79056 c -5.83721,4.81261 -14.37415,5.89351 -21.18425,5.85491 q -35.92323,-0.24449 -49.77446,-0.19302 a 0.52365311,0.56539371 4.7952991 0 1 -0.4378,-0.87502 q 1.17961,-1.87872 2.83348,-4.092 38.75672,-51.85775 72.77069,-96.35504 1.49579,-1.94307 3.80636,-5.0571 c 7.00466,-9.41932 8.42749,-22.11997 4.88868,-32.83896 q -1.98223,-6.02218 -7.81945,-13.56279 -8.58558,-11.079281 -22.93541,-30.458391 -2.04304,-2.7666 -4.17118,-15.06834 z"
     id="path90"
     style="stroke-width:1.25094" />
  <path
     fill="#c72235"
     d="m 292.52683,1.8279932 q -1.66605,3.062566 -7.55191,15.3128338 -9.99624,20.768836 -10.51915,39.697552 -8.08699,9.98552 -16.79418,15.78895 c -0.80262,-12.34034 3.46585,-25.234 8.69503,-35.618422 q 9.26658,-18.388268 22.15712,-32.7874798 1.53227,-1.711435 4.01309,-2.393434 z"
     id="path92"
     style="stroke-width:1.25094" />
  <path
     fill="#c72235"
     d="m 148.48123,220.76291 c 3.68475,-9.41931 9.54629,-19.70079 12.75676,-27.09985 7.61271,-17.52612 14.49577,-36.95669 17.90082,-56.06557 q 0.65669,-3.65448 2.45649,-20.27984 1.07016,-9.77963 0,-15.84042 8.81664,-1.08091 13.89988,-1.0423 16.92794,0.11581 43.40218,0.27023 a 0.29264647,0.32083481 8.065609 0 1 0.23105,0.51471 z"
     id="path94"
     style="stroke-width:1.25094" />
  <path
     fill="#e82532"
     d="m 181.5953,101.47723 q 1.07016,6.06079 0,15.84042 -1.7998,16.62536 -2.45649,20.27984 c -3.40505,19.10888 -10.28811,38.53945 -17.90082,56.06557 -3.21047,7.39906 -9.07201,17.68054 -12.75676,27.09985 q -9.59493,13.71722 -18.70343,23.67699 c -10.09353,11.04069 -26.6688,12.18593 -39.352605,6.79427 q -4.876508,-2.07174 -10.871822,-8.80167 -5.375109,-6.03505 -9.874633,-12.73924 l 5.496715,-6.48544 30.365715,-39.98065 q 1.28906,0.34744 2.24977,-0.95223 25.03924,-33.61102 50.49196,-66.88749 c 6.16556,-8.06819 12.84188,-13.34404 23.3124,-13.91022 z"
     id="path96"
     style="stroke-width:1.25094" />
  <path
     fill="#c3c3c3"
     d="m 82.605757,154.72471 q 11.090722,13.64001 20.965353,26.86824 0.52292,0.69486 1.97006,1.63422 l -30.365715,39.98065 q 10.263788,-19.4563 11.978467,-37.26551 1.362015,-14.01318 -4.548165,-31.2176 z"
     id="path98"
     style="stroke-width:1.25094" />
</svg>
