<?xml version="1.0" encoding="UTF-8" standalone="no"?>
<svg
   version="1.1"
   viewBox="0 0 719.29919 612.06427"
   id="svg392"
   sodipodi:docname="logo rojo.svg"
   width="719.29919"
   height="612.06427"
   inkscape:version="1.2.2 (b0a8486541, 2022-12-01)"
   xmlns:inkscape="http://www.inkscape.org/namespaces/inkscape"
   xmlns:sodipodi="http://sodipodi.sourceforge.net/DTD/sodipodi-0.dtd"
   xmlns="http://www.w3.org/2000/svg"
   xmlns:svg="http://www.w3.org/2000/svg">
  <defs
     id="defs396" />
  <sodipodi:namedview
     id="namedview394"
     pagecolor="#ffffff"
     bordercolor="#000000"
     borderopacity="0.25"
     inkscape:showpageshadow="2"
     inkscape:pageopacity="0.0"
     inkscape:pagecheckerboard="0"
     inkscape:deskcolor="#d1d1d1"
     showgrid="false"
     inkscape:zoom="1.1300578"
     inkscape:cx="192.91049"
     inkscape:cy="318.12532"
     inkscape:window-width="1920"
     inkscape:window-height="1002"
     inkscape:window-x="0"
     inkscape:window-y="0"
     inkscape:window-maximized="1"
     inkscape:current-layer="svg392" />
  <g
     stroke-width="2"
     fill="none"
     stroke-linecap="butt"
     id="g372"
     transform="translate(-14.611393,-28.711197)">
    <path
       stroke="#018ed9"
       vector-effect="non-scaling-stroke"
       d="m 638.37,75.01 q -60.68,61.16 -122,122.09 -6.55,6.51 -14.38,11.41 -0.19,0.12 -0.36,0.03 -0.17,-0.09 -0.32,-0.25"
       id="path364" />
    <path
       stroke="#018ad9"
       vector-effect="non-scaling-stroke"
       d="m 492.44,396.01 q 0.29,-0.77 -0.95,-0.77 -84,-0.06 -168,0.09 -0.93,0 -0.7,0.5"
       id="path366" />
    <path
       stroke="#018ad9"
       vector-effect="non-scaling-stroke"
       d="m 276.28,425.24 -1.46,0.23 a 0.28,0.28 0 0 1 -0.3,-0.38 q 2.98,-7.91 7.29,-14.78 c 2.34,-3.74 7.15,-10.94 11.34,-15.39 3.44,-3.66 6.35,-7.17 10.6,-11.36 q 64.83,-63.84 129.58,-126.23 4.32,-4.16 6.96,-10.51"
       id="path368" />
    <path
       stroke="#0298e1"
       vector-effect="non-scaling-stroke"
       d="m 275.61,448.15 q -2.08,1.82 -4.36,3.86 -32.64,29.2 -70.25,52.74 -13.18,8.25 -17.68,10.81 -43.45,24.72 -66.18,37.34 -2.24,1.25 -5.72,2.46"
       id="path370" />
  </g>
  <path
     fill="#212330"
     fill-opacity="0.00799997"
     d="M 719.29922,0 V 612.06424 H 0 V 0 Z M 96.207447,36.051645 c -3.49777,3.21953 -5.82021,8.048821 -4.38162,12.586235 1.86172,5.872986 6.36556,10.896865 11.546403,14.664776 q 45.08549,32.779047 87.21856,64.072154 0.63937,0.47762 0.88385,0.24765 0.24446,-0.22112 -0.24448,-0.84026 Q 158.8758,86.485033 125.00763,43.384033 c -3.89268,-4.953121 -9.12993,-9.295947 -15.33565,-11.179902 -4.78593,-1.450556 -9.976173,0.63683 -13.464533,3.847514 z m 375.154503,148.177915 0.0376,0.40686 a 1.6036089,1.7637916 71.305321 0 1 -0.12224,0.76066 q -4.11833,9.96816 -11.32073,17.10596 -5.24665,5.20078 -7.65372,6.9786 -7.25881,5.37768 -16.54859,6.84592 -7.18358,1.13213 -15.22281,1.22059 a 4.0600242,4.3148092 77.634849 0 0 -0.89325,0.10614 q -2.75496,0.61913 -5.65096,0.65451 -91.77882,0.13268 -183.54824,0.12384 c -0.62997,0 -1.15652,0.35379 -1.95573,0.39801 q -6.1211,0.36264 -11.72506,0.50417 a 3.9840283,3.7349746 4.0237686 0 0 -0.97786,0.13266 q -2.01216,0.49532 -4.20297,0.5926 -1.65486,0.062 -4.7013,0.50416 -45.80008,6.53635 -79.39559,36.68848 c -20.15919,18.08774 -36.087203,41.50008 -43.92897,66.7433 q -3.093458,9.95932 -6.374966,27.71979 c -0.272676,1.46825 -0.09403,3.40527 -0.592364,4.77622 q -0.507741,1.38864 -0.535948,3.50257 -0.04702,3.14877 -0.714598,6.40367 a 10.974983,11.707373 84.341969 0 0 -0.21626,2.19354 q 0.0094,4.52857 -0.357299,7.56235 -0.573559,4.68778 -0.545351,7.49159 0.04701,6.85478 0.05641,9.95047 0,0.46877 0.282078,1.08792 a 2.1480192,2.0126222 3.554275 0 1 0.159844,0.71643 q 0.507741,17.47744 4.654288,36.06049 5.688576,25.51742 18.382093,48.39022 c 1.96515,3.53795 4.720113,7.53582 7.014353,11.35681 q 4.40042,5.13001 8.77262,10.26003 2.28484,2.67114 4.26879,4.50204 c 3.84566,3.56447 7.39985,7.20856 11.48998,10.56075 q 27.85051,22.81975 63.9095,30.99239 13.10723,2.96304 28.96943,4.732 c 8.83844,0.99063 18.40089,0.55723 27.20173,0.91987 q 10.85061,0.45109 20.42246,0.52184 58.70045,0.45993 112.39872,0 5.0398,-0.0442 9.4026,-0.40687 5.27487,-0.43339 9.42141,-0.38916 6.4502,0.0708 14.07571,-0.71644 15.85278,-1.6363 21.59777,-3.02494 14.64927,-3.52909 24.21171,-7.49159 c 32.31675,-13.39113 56.62249,-38.52821 69.79553,-69.44984 q 4.21237,-9.88856 6.18691,-17.56589 c 2.34125,-9.10135 4.60728,-17.85777 5.89544,-26.54341 q 1.19413,-8.00461 2.1908,-15.40776 0.52655,-3.91827 0.49834,-6.81054 c -0.0658,-5.33345 0.93086,-9.92392 0.90265,-14.65593 q -0.0282,-5.32461 -0.42311,-7.79232 -0.28208,-1.82204 -0.29149,-9.73818 -0.01,-3.13993 -2.93361,-3.13993 -63.32653,-0.0619 -165.12853,-0.0266 c -4.04312,0 -6.45019,0.53954 -7.78535,4.12171 -4.72951,12.71006 -14.38599,23.49195 -28.24543,28.13549 q -6.60062,2.22006 -20.96781,2.50311 -21.58837,0.42454 -41.08937,-0.28305 c -8.27429,-0.30956 -15.10999,-2.15814 -20.36605,-8.63258 q -2.14379,-5.13885 -3.2721,-11.69289 a 3.1487002,3.3753456 82.200257 0 1 0.32909,-1.92819 l 3.57299,-6.64248 q 8.06744,-11.61331 20.66692,-18.79534 10.38987,-5.91721 22.51924,-6.94321 0.37611,-0.0353 0.54535,-0.2742 l 159.51518,0.15922 q 2.9054,-0.53069 3.81745,-0.51301 20.04635,0.25651 40.0551,-0.42455 a 2.2502472,2.3930325 73.254133 0 0 0.59236,-0.0884 q 1.37278,-0.41571 4.73891,-0.6899 10.7848,-0.87564 21.95509,-3.98903 12.22338,-3.40528 20.41305,-6.6248 10.70956,-4.21899 20.949,-10.40156 9.12993,-5.51919 13.14484,-8.84486 2.46348,-2.03431 3.64821,-2.90111 2.21902,-1.62746 3.62941,-2.9188 9.52484,-8.74757 10.99164,-10.35733 12.39263,-13.55917 19.73606,-26.51689 5.32188,-9.39323 6.70406,-12.542 13.27648,-30.10791 14.32957,-59.14558 0.74281,-20.67928 -0.10343,-30.82432 -0.75221,-8.96869 -1.58904,-14.27561 -3.9961,-25.34936 -13.07902,-46.81584 -10.70016,-25.313977 -31.4235,-44.604622 c -0.47013,-0.433399 -0.55475,-0.919865 -1.29757,-1.441711 Q 591.0759,59.614339 586.64727,56.916657 566.94881,44.905338 544.61763,39.890303 532.01814,37.059948 523.2361,36.35236 q -6.1399,-0.495312 -7.86057,-0.857951 a 4.0657425,4.3467868 82.638275 0 0 -1.20354,-0.106138 q -4.18415,0.150362 -10.32406,-0.433399 -4.56966,-0.433398 -10.07959,-0.451087 -72.5881,-0.141518 -130.38591,0.424552 c -4.80473,0.05307 -8.24608,0.398019 -12.11995,0.389175 q -4.16536,-0.0089 -9.06411,0.574915 -12.86276,1.539005 -25.03914,4.935431 -18.85222,5.262692 -35.7581,16.725628 -32.91852,22.333277 -47.79344,58.933284 -11.35834,27.93207 -13.15424,60.3927 a 1.6487911,1.5622217 10.809396 0 1 -0.14105,0.53954 q -0.28207,0.64568 -0.29147,1.03485 -0.21626,10.87033 -0.17866,17.63665 c 0.01,2.35273 0.67699,3.193 3.2345,3.193 q 97.18532,0.009 155.85757,0.009 4.38161,0 7.5879,-3.08686 c 4.42863,-4.25438 8.19907,-9.0129 12.33622,-12.60392 q 14.17913,-12.31205 34.12205,-13.7626 12.04474,-0.87564 23.50651,0.15037 c 8.59398,0.77834 13.44572,6.73093 14.87492,14.24021 z m -439.289667,6.83708 q 0.0094,0.11498 0.01881,0.22996 0.64878,6.66018 6.196316,9.75589 c 2.660937,1.48593 7.305823,2.26428 10.136007,1.90164 q 24.268121,-3.11339 41.850991,-5.23616 20.554083,-2.47655 38.296803,-4.76737 7.80416,-1.00832 39.75422,-4.74086 3.50716,-0.4157 3.47896,-1.25596 -0.0282,-0.84911 -3.55419,-1.05254 -32.1381,-1.84857 -39.98928,-2.39695 -17.86494,-1.24713 -38.541273,-2.5031 -17.695694,-1.08792 -42.114258,-2.76844 c -2.848988,-0.19458 -7.437459,0.85795 -9.994967,2.49425 q -5.331277,3.41411 -5.538134,10.10082 0,0.12383 0,0.23882 z M 663.00583,550.88435 c 5.26545,-4.01557 6.68525,-10.38387 4.46623,-16.38069 q -1.88992,-5.13001 -4.47564,-7.65079 -43.49644,-42.48186 -86.80484,-81.70881 -2.51989,-2.28198 -9.63767,-8.24341 -2.39766,-2.00778 -3.06524,-1.49478 -0.66759,0.51301 0.92145,3.13109 4.72951,7.78346 6.58182,10.5696 31.83722,47.97451 67.02176,96.79813 2.08738,2.90112 7.03316,5.70493 c 5.77319,3.28144 12.68411,3.29914 17.95897,-0.72527 z"
     id="path374"
     style="stroke-width:0.911946" />
  <path
     fill="#02ace4"
     d="m 204.8433,162.95293 q -0.36258,0.37606 -1.31088,-0.40498 Q 141.04282,111.37567 74.174354,57.773496 c -7.68395,-6.1615 -14.36382,-14.37683 -17.12502,-23.98067 -2.13366,-7.41984 1.31087,-15.31697 6.49858,-20.58173 5.17377,-5.2502901 12.87166,-8.6637101 19.9699,-6.2916801 9.204,3.0807601 16.971616,10.1823901 22.745036,18.2820201 q 50.23154,70.48121 98.21787,136.377454 0.72516,1.01245 0.36258,1.37404 z"
     id="path376"
     style="stroke-width:1.42022;fill:#ffffff;fill-opacity:1" />
  <path
     fill="#02ace4"
     d="m 623.75861,46.298803 q -60.68,61.159997 -122,122.089997 -6.55,6.51 -14.38,11.41 -0.19,0.12 -0.36,0.03 -0.17,-0.09 -0.32,-0.25 c -1.52,-8.49 -6.68,-15.22 -15.82,-16.1 q -12.19,-1.16 -25,-0.17 -21.21,1.64 -36.29,15.56 c -4.4,4.06 -8.41,9.44 -13.12,14.25 q -3.41,3.49 -8.07,3.49 -62.4,0 -165.76,-0.01 c -2.72,0 -3.43,-0.95 -3.44,-3.61 q -0.04,-7.65 0.19,-19.94 0.01,-0.44 0.31,-1.17 a 1.78,1.74 59.5 0 0 0.15,-0.61 q 1.91,-36.7 13.99,-68.28 15.82,-41.379997 50.83,-66.629997 17.98,-12.96 38.03,-18.91 12.95,-3.84 26.63,-5.58 5.21,-0.66 9.64,-0.65 c 4.12,0.01 7.78,-0.38 12.89,-0.44 q 61.47,-0.64 138.67,-0.48 5.86,0.02 10.72,0.51 6.53,0.66 10.98,0.49 a 4.57,4.65 50.8 0 1 1.28,0.12 q 1.83,0.41 8.36,0.97 9.34,0.8 22.74,4 23.75,5.67 44.7,19.25 4.71,3.05 14.45,10.66 z"
     id="path378"
     style="fill:#ffffff;fill-opacity:1" />
  <path
     fill="#0070ce"
     d="m 623.75861,46.298803 c 0.79,0.59 0.88,1.14 1.38,1.63 q 22.04,21.81 33.42,50.43 9.66,24.269997 13.91,52.929997 0.89,6 1.69,16.14 0.9,11.47 0.11,34.85 -1.12,32.83 -15.24,66.87 -1.47,3.56 -7.13,14.18 -7.81,14.65 -20.99,29.98 -1.56,1.82 -11.69,11.71 -1.5,1.46 -3.86,3.3 -1.26,0.98 -3.88,3.28 -4.27,3.76 -13.98,10 -10.89,6.99 -22.28,11.76 -8.71,3.64 -21.71,7.49 -11.88,3.52 -23.35,4.51 -3.58,0.31 -5.04,0.78 a 2.5,2.59 36.9 0 1 -0.63,0.1 q -21.28,0.77 -42.6,0.48 -0.97,-0.02 -4.06,0.58 0.29,-0.77 -0.95,-0.77 -84,-0.06 -168,0.09 -0.93,0 -0.7,0.5 -0.18,0.27 -0.58,0.31 -12.9,1.16 -23.95,7.85 -13.4,8.12 -21.98,21.25 l -1.46,0.23 a 0.28,0.28 0 0 1 -0.3,-0.38 q 2.98,-7.91 7.29,-14.78 c 2.34,-3.74 7.15,-10.94 11.34,-15.39 3.44,-3.66 6.35,-7.17 10.6,-11.36 q 64.83,-63.84 129.58,-126.23 4.32,-4.16 6.96,-10.51 3.08,-0.04 6.01,-0.74 a 4.53,4.65 38.5 0 1 0.95,-0.12 q 8.55,-0.1 16.19,-1.38 9.88,-1.66 17.6,-7.74 2.56,-2.01 8.14,-7.89 7.66,-8.07 12.04,-19.34 a 1.79,1.9 52 0 0 0.13,-0.86 l -0.04,-0.46 q 0.15,0.16 0.32,0.25 0.17,0.09 0.36,-0.03 7.83,-4.9 14.38,-11.41 61.32,-60.93 122,-122.089997 z"
     id="path380"
     style="fill:#e01400;fill-opacity:1" />
  <path
     fill="#0070ce"
     d="m 204.28615,189.29325 q 0.0402,1.57658 -4.95668,2.35656 -45.52107,7.0033 -56.64011,8.89519 -25.27907,4.29823 -54.563667,8.94497 -25.05133,3.98292 -59.627525,9.82453 c -4.032326,0.68042 -10.650164,-0.77999 -14.441354,-3.56803 q -7.9038952,-5.80842 -8.8282492,-18.30483 -0.0134,-0.21574 -0.02679,-0.43148 0,-0.21574 0,-0.44808 0.294722,-12.54619 7.8904992,-18.95205 c 3.643829,-3.07017 10.181288,-5.04503 14.240407,-4.67993 q 34.790532,3.15314 60.002622,5.19439 29.458747,2.35656 54.911967,4.69652 11.18603,1.02892 56.97503,4.49738 5.02366,0.3817 5.06385,1.97486 z"
     id="path382"
     style="stroke-width:1.49104;fill:#e01400;fill-opacity:1" />
  <path
     fill="#02a4e4"
     d="m 425.67861,218.1088 q -2.64,6.35 -6.96,10.51 -64.75,62.39 -129.58,126.23 c -4.25,4.19 -7.16,7.7 -10.6,11.36 -4.19,4.45 -9,11.65 -11.34,15.39 q -4.31,6.87 -7.29,14.78 a 0.28,0.28 0 0 0 0.3,0.38 l 1.46,-0.23 -3.8,7.51 a 3.54,3.61 53.6 0 0 -0.35,2.18 q 1.2,7.41 3.48,13.22 -2.08,1.82 -4.36,3.86 -32.64,29.2 -70.25,52.74 -13.18,8.25 -17.68,10.81 -43.45,24.72 -66.18,37.34 -2.24,1.25 -5.720003,2.46 c -2.44,-4.32 -5.37,-8.84 -7.46,-12.84 q -13.5,-25.86 -19.55,-54.71 -4.41,-21.01 -4.95,-40.77 a 2.29,2.27 33.4 0 0 -0.17,-0.81 q -0.3,-0.7 -0.3,-1.23 -0.01,-3.5 -0.06,-11.25 -0.03,-3.17 0.58,-8.47 0.39,-3.43 0.38,-8.55 a 12.35,12.51 49.9 0 1 0.23,-2.48 q 0.71,-3.68 0.76,-7.24 0.03,-2.39 0.57,-3.96 c 0.53,-1.55 0.34,-3.74 0.63,-5.4 q 3.49,-20.08 6.78,-31.34 c 8.34,-28.54 25.28,-55.01 46.720003,-75.46 q 35.73,-34.09 84.44,-41.48 3.24,-0.5 5,-0.57 2.33,-0.11 4.47,-0.67 a 4.25,4.21 36.5 0 1 1.04,-0.15 q 5.96,-0.16 12.47,-0.57 c 0.85,-0.05 1.41,-0.45 2.08,-0.45 q 97.6,0.01 195.21,-0.14 z"
     id="path384"
     style="fill:#ffffff;fill-opacity:1" />
  <path
     fill="#02a4e4"
     d="m 477.82861,367.2988 -169.65,-0.18 q -0.23,-0.5 0.7,-0.5 84,-0.15 168,-0.09 1.24,0 0.95,0.77 z"
     id="path386" />
  <path
     fill="#028bde"
     d="m 96.808607,526.6488 q 3.480003,-1.21 5.720003,-2.46 22.73,-12.62 66.18,-37.34 4.5,-2.56 17.68,-10.81 37.61,-23.54 70.25,-52.74 2.28,-2.04 4.36,-3.86 c 5.59,7.32 12.86,9.41 21.66,9.76 q 20.74,0.8 43.7,0.32 15.28,-0.32 22.3,-2.83 c 14.74,-5.25 25.01,-17.44 30.04,-31.81 1.42,-4.05 3.98,-4.66 8.28,-4.66 q 108.27,-0.04 175.62,0.03 3.11,0 3.12,3.55 0.01,8.95 0.31,11.01 0.42,2.79 0.45,8.81 c 0.03,5.35 -1.03,10.54 -0.96,16.57 q 0.03,3.27 -0.53,7.7 -1.06,8.37 -2.33,17.42 c -1.37,9.82 -3.78,19.72 -6.27,30.01 q -2.1,8.68 -6.58,19.86 c -14.01,34.96 -39.86,63.38 -74.23,78.52 q -10.17,4.48 -25.75,8.47 -6.11,1.57 -22.97,3.42 -8.11,0.89 -14.97,0.81 -4.41,-0.05 -10.02,0.44 -4.64,0.41 -10,0.46 -57.11,0.52 -119.54,0 -10.18,-0.08 -21.72,-0.59 c -9.36,-0.41 -19.53,0.08 -28.93,-1.04 q -16.87,-2 -30.81,-5.35 -38.35,-9.24 -67.97,-35.04 c -4.35,-3.79 -8.13,-7.91 -12.22,-11.94 q -2.11,-2.07 -4.54,-5.09 -4.65,-5.8 -9.330003,-11.6 z"
     id="path388"
     style="fill:#e01400;fill-opacity:1" />
  <path
     fill="#0070ce"
     d="m 571.97415,440.67437 q 0.92674,-0.67602 4.25519,1.96978 9.88093,7.85583 13.37906,10.86296 60.12093,51.6923 120.50291,107.67384 3.58951,3.32182 6.21311,10.08204 c 3.08044,7.90245 1.10948,16.29443 -6.20006,21.58605 -7.32258,5.30326 -16.91635,5.27995 -24.93073,0.95575 q -6.86574,-3.6948 -9.76345,-7.51782 -48.84336,-64.33855 -93.03994,-127.55818 -2.57139,-3.67149 -9.13692,-13.92836 -2.20591,-3.45004 -1.27917,-4.12606 z"
     id="path390"
     style="stroke-width:1.23344;fill:#e01400;fill-opacity:1" />
</svg>
